<?xml version="1.0" encoding="UTF-8" standalone="no"?>
<!DOCTYPE svg PUBLIC "-//W3C//DTD SVG 1.1//EN" "http://www.w3.org/Graphics/SVG/1.1/DTD/svg11.dtd">
<svg xmlns="http://www.w3.org/2000/svg" xmlns:xlink="http://www.w3.org/1999/xlink" version="1.1" width="419.5276pt" height="595.2756pt" viewBox="0 0 419.5276 595.2756">
<g enable-background="new">
<g>
<g id="Layer-1" data-name="Layer 1">
<path transform="matrix(1,0,0,-1,0,595.2756)" d="M 41.2194 530.1547 L 378.3093 530.1547 L 378.3093 156.7239 L 41.2194 156.7239 Z " fill="#ec6502" fill-rule="evenodd"/>
<path transform="matrix(1,0,0,-1,0,595.2756)" stroke-width="4" stroke-linecap="butt" stroke-miterlimit="22.925585" stroke-linejoin="miter" fill="none" stroke="#ec6502" d="M 30.7936 541.7045 L 388.7351 541.7045 L 388.7351 145.1741 L 30.7936 145.1741 Z "/>
<path transform="matrix(1,0,0,-1,0,595.2756)" d="M 73.5627 391.9663 C 73.5627 386.8532 69.4069 382.7293 64.3252 382.7293 C 59.2121 382.7293 55.0959 386.8532 55.0959 391.9586 C 55.0959 397.0718 59.2121 401.1962 64.3252 401.1962 C 69.4069 401.1962 73.5627 397.0718 73.5627 391.9663 " fill="#6f6f6e" fill-rule="evenodd"/>
<path transform="matrix(1,0,0,-1,0,595.2756)" d="M 363.7826 391.9663 C 363.7826 386.8532 359.6584 382.7293 354.545 382.7293 C 349.4636 382.7293 345.3075 386.8532 345.3075 391.9586 C 345.3075 397.0718 349.4636 401.1962 354.545 401.1962 C 359.6584 401.1962 363.7826 397.0718 363.7826 391.9663 " fill="#6f6f6e" fill-rule="evenodd"/>
<path transform="matrix(1,0,0,-1,0,595.2756)" d="M 134.0444 431.07 C 134.0444 425.9565 129.9285 421.8327 124.8151 421.8327 C 119.7255 421.8327 115.5779 425.9565 115.5779 431.07 C 115.5779 436.1831 119.7255 440.2993 124.8151 440.2993 C 129.9285 440.2993 134.0444 436.1831 134.0444 431.07 " fill="#6f6f6e" fill-rule="evenodd"/>
<path transform="matrix(1,0,0,-1,0,595.2756)" d="M 303.9548 431.07 C 303.9548 425.9565 299.7989 421.8327 294.7175 421.8327 C 289.6044 421.8327 285.48 425.9565 285.48 431.07 C 285.48 436.1831 289.6044 440.2993 294.7175 440.2993 C 299.7989 440.2993 303.9548 436.1831 303.9548 431.07 " fill="#6f6f6e" fill-rule="evenodd"/>
<path transform="matrix(1,0,0,-1,0,595.2756)" d="M 223.4826 488.2011 C 223.4826 479.219 216.2157 471.96 207.2336 471.96 C 198.2673 471.96 190.9843 479.219 190.9843 488.2011 C 190.9843 497.1912 198.2673 504.4425 207.2336 504.4425 C 216.2157 504.4425 223.4826 497.1912 223.4826 488.2011 " fill="#6f6f6e" fill-rule="evenodd"/>
<path transform="matrix(1,0,0,-1,0,595.2756)" d="M 307.0346 178.7281 C 306.7855 184.7341 306.76 191.0027 306.9428 197.4804 L 113.6733 197.4804 C 113.8283 191.0667 113.7923 184.8016 113.5508 178.7281 Z M 307.1786 203.7073 C 309.9929 263.194 329.3337 338.4357 354.5447 392.5094 L 288.4793 340.3789 L 294.3907 431.5887 L 247.2069 346.7849 L 207.3691 489.9878 L 169.056 351.4836 L 124.4801 431.5887 L 130.3909 340.3789 L 64.3255 392.5094 C 91.0015 340.7091 110.8259 265.9467 113.4649 203.7073 Z " fill="#6f6f6e" fill-rule="evenodd"/>
<text fill="#ec6502" xml:space="preserve" transform="matrix(1 0 -0 1 0 595.2756)" font-size="187.193" font-family="Arial" font-weight="bold"><tspan y="-209.0928" x="150.2033">a</tspan></text>
<path transform="matrix(1,0,0,-1,0,595.2756)" d="M 27.8042 135.8538 L 76.3753 135.8538 L 76.3753 53.5711 L 27.8042 53.5711 Z " fill="#ec6502" fill-rule="evenodd"/>
<text fill="#6f6f6e" xml:space="preserve" transform="matrix(1 0 -0 1 0 595.2756)" font-size="87.083" font-family="Arial" font-weight="bold"><tspan y="-72.1791" x="27.521 75.93915 100.148227 129.14687 177.56502 201.7741 254.98181 288.85713 342.06483">alfa grup</tspan></text>
</g>
</g>
</g>
</svg>
