<?xml version="1.0" encoding="UTF-8" standalone="no"?>
<!DOCTYPE svg PUBLIC "-//W3C//DTD SVG 1.1//EN" "http://www.w3.org/Graphics/SVG/1.1/DTD/svg11.dtd">
<svg xmlns="http://www.w3.org/2000/svg" xmlns:xlink="http://www.w3.org/1999/xlink" version="1.1" width="1600.5276pt" height="800.2756pt" viewBox="0 0 419.5276 595.2756">
<g enable-background="new">
<g>
<g id="Layer-1" data-name="Layer 1">
<path transform="matrix(1,0,0,-1,0,595.2756)" d="M 41.1557 530.2582 L 378.3951 530.2582 L 378.3951 156.6615 L 41.1557 156.6615 Z " fill="#6f6f6e" fill-rule="evenodd"/>
<path transform="matrix(1,0,0,-1,0,595.2756)" stroke-width="4" stroke-linecap="butt" stroke-miterlimit="22.925585" stroke-linejoin="miter" fill="none" stroke="#6f6f6e" d="M 30.7253 541.813 L 388.8258 541.813 L 388.8258 145.1064 L 30.7253 145.1064 Z "/>
<path transform="matrix(1,0,0,-1,0,595.2756)" d="M 73.5131 392.0085 C 73.5131 386.8931 69.3553 382.7673 64.2719 382.7673 C 59.1562 382.7673 55.0383 386.8931 55.0383 392.0006 C 55.0383 397.116 59.1562 401.2421 64.2719 401.2421 C 69.3553 401.2421 73.5131 397.116 73.5131 392.0085 " fill="#ec6502" fill-rule="evenodd"/>
<path transform="matrix(1,0,0,-1,0,595.2756)" d="M 363.8619 392.0085 C 363.8619 386.8931 359.7358 382.7673 354.6204 382.7673 C 349.5368 382.7673 345.3789 386.8931 345.3789 392.0006 C 345.3789 397.116 349.5368 401.2421 354.6204 401.2421 C 359.7358 401.2421 363.8619 397.116 363.8619 392.0085 " fill="#ec6502" fill-rule="evenodd"/>
<path transform="matrix(1,0,0,-1,0,595.2756)" d="M 134.0218 431.1295 C 134.0218 426.0138 129.9039 421.8877 124.7885 421.8877 C 119.6969 421.8877 115.547 426.0138 115.547 431.1295 C 115.547 436.2449 119.6969 440.3628 124.7885 440.3628 C 129.9039 440.3628 134.0218 436.2449 134.0218 431.1295 " fill="#ec6502" fill-rule="evenodd"/>
<path transform="matrix(1,0,0,-1,0,595.2756)" d="M 304.0078 431.1295 C 304.0078 426.0138 299.85 421.8877 294.766 421.8877 C 289.6506 421.8877 285.5248 426.0138 285.5248 431.1295 C 285.5248 436.2449 289.6506 440.3628 294.766 440.3628 C 299.85 440.3628 304.0078 436.2449 304.0078 431.1295 " fill="#ec6502" fill-rule="evenodd"/>
<path transform="matrix(1,0,0,-1,0,595.2756)" d="M 223.4999 488.2861 C 223.4999 479.3 216.2296 472.0377 207.2432 472.0377 C 198.2735 472.0377 190.9871 479.3 190.9871 488.2861 C 190.9871 497.2802 198.2735 504.5346 207.2432 504.5346 C 216.2296 504.5346 223.4999 497.2802 223.4999 488.2861 " fill="#ec6502" fill-rule="evenodd"/>
<path transform="matrix(1,0,0,-1,0,595.2756)" d="M 307.0891 178.6754 C 306.8393 184.684 306.8141 190.9553 306.9975 197.4362 L 113.6418 197.4362 C 113.7969 191.0194 113.7609 184.7514 113.5191 178.6754 Z M 307.2328 203.6656 C 310.0484 263.1787 329.398 338.4541 354.6201 392.5517 L 288.5255 340.3979 L 294.4392 431.6482 L 247.2347 346.8067 L 207.379 490.0737 L 169.0489 351.5077 L 124.4537 431.6482 L 130.3665 340.3979 L 64.2719 392.5517 C 90.9598 340.7284 110.7927 265.9329 113.4332 203.6656 Z " fill="#ec6502" fill-rule="evenodd"/>
<path transform="matrix(1,0,0,-1,0,595.2756)" stroke-width=".216" stroke-linecap="butt" stroke-miterlimit="22.925585" stroke-linejoin="miter" fill="none" stroke="#ec6502" d="M 307.0891 178.6754 C 306.8393 184.684 306.8141 190.9553 306.9975 197.4362 L 113.6418 197.4362 C 113.7969 191.0194 113.7609 184.7514 113.5191 178.6754 Z M 307.2328 203.6656 C 310.0484 263.1787 329.398 338.4541 354.6201 392.5517 L 288.5255 340.3979 L 294.4392 431.6482 L 247.2347 346.8067 L 207.379 490.0737 L 169.0489 351.5077 L 124.4537 431.6482 L 130.3665 340.3979 L 64.2719 392.5517 C 90.9598 340.7284 110.7927 265.9329 113.4332 203.6656 Z "/>
<text fill="#6f6f6e" xml:space="preserve" transform="matrix(1 0 -0 1 0 595.2756)" font-size="187.267" font-family="Arial" font-weight="bold"><tspan y="-209.0537" x="150.1877">a</tspan></text>
<path transform="matrix(1,0,0,-1,0,595.2756)" d="M 27.7345 135.7821 L 76.3271 135.7821 L 76.3271 53.4628 L 27.7345 53.4628 Z " fill="#ec6502" fill-rule="evenodd"/>
<text fill="#6f6f6e" xml:space="preserve" transform="matrix(1 0 -0 1 0 595.2756)" font-size="87.117" font-family="Arial" font-weight="bold"><tspan y="-72.0791" x="27.451 75.888057 100.10658 129.11655 177.5536 201.77213 255.00061 288.88914 342.1176">alfa grup</tspan></text>
</g>
</g>
</g>
</svg>
